HIERARCHY
ROOT Hips
{
  OFFSET 53.4117 91.6221 6.10356
  CHANNELS 6 Xposition Yposition Zposition Zrotation Xrotation Yrotation
  JOINT spine
  {
    OFFSET 0 6.84637 0.3937
    CHANNELS 3 Zrotation Xrotation Yrotation
    JOINT spine1
    {
      OFFSET 0 9.49621 0
      CHANNELS 3 Zrotation Xrotation Yrotation
      JOINT spine2
      {
        OFFSET 0 9.09909 0
        CHANNELS 3 Zrotation Xrotation Yrotation
        JOINT Neck
        {
          OFFSET 0 23.3612 1.11378
          CHANNELS 3 Zrotation Xrotation Yrotation
          JOINT Head
          {
            OFFSET 0 7.05802 0
            CHANNELS 3 Zrotation Xrotation Yrotation
            End Site
            {
              OFFSET 0 17.0844 -5.63419
            }
          }
        }
        JOINT RightShoulder
        {
          OFFSET -3.83136 9.82631 -0.533491
          CHANNELS 3 Zrotation Xrotation Yrotation
          JOINT RightArm
          {
            OFFSET 0 12.8881 0
            CHANNELS 3 Zrotation Xrotation Yrotation
            JOINT RightArmRoll
            {
              OFFSET 0 6.50617 0
              CHANNELS 3 Zrotation Xrotation Yrotation
              JOINT RightForeArm
              {
                OFFSET 0 18.9501 0
                CHANNELS 3 Zrotation Xrotation Yrotation
                JOINT RightForeArmRoll
                {
                  OFFSET 0 7.30092 0
                  CHANNELS 3 Zrotation Xrotation Yrotation
                  JOINT RightHand
                  {
                    OFFSET 0 14.6514 0
                    CHANNELS 3 Zrotation Xrotation Yrotation
                    End Site
                    {
                      OFFSET 0 0 0
                    }
                  }
                }
              }
            }
          }
        }
        JOINT LeftShoulder
        {
          OFFSET 3.83136 9.82631 -0.533491
          CHANNELS 3 Zrotation Xrotation Yrotation
          JOINT LeftArm
          {
            OFFSET 0 12.8881 0
            CHANNELS 3 Zrotation Xrotation Yrotation
            JOINT LeftArmRoll
            {
              OFFSET 0 6.50617 0
              CHANNELS 3 Zrotation Xrotation Yrotation
              JOINT LeftForeArm
              {
                OFFSET 0 18.9501 0
                CHANNELS 3 Zrotation Xrotation Yrotation
                JOINT LeftForeArmRoll
                {
                  OFFSET 0 7.30092 0
                  CHANNELS 3 Zrotation Xrotation Yrotation
                  JOINT LeftHand
                  {
                    OFFSET 0 14.6514 0
                    CHANNELS 3 Zrotation Xrotation Yrotation
                    End Site
                    {
                      OFFSET 0 0 0
                    }
                  }
                }
              }
            }
          }
        }
      }
    }
  }
  JOINT RightUpLeg
  {
    OFFSET -6.06837 -1.11278 -0.933477
    CHANNELS 3 Zrotation Xrotation Yrotation
    JOINT RightUpLegRoll
    {
      OFFSET 0 17.1796 0
      CHANNELS 3 Zrotation Xrotation Yrotation
      JOINT RightLeg
      {
        OFFSET 0 -21.2743 0
        CHANNELS 3 Zrotation Xrotation Yrotation
        JOINT RightLegRoll
        {
          OFFSET 0 21.3439 0
          CHANNELS 3 Zrotation Xrotation Yrotation
          JOINT RightFoot
          {
            OFFSET 0 17.7652 0
            CHANNELS 3 Zrotation Xrotation Yrotation
            JOINT RightToeBase
            {
              OFFSET 0 14.8508 0
              CHANNELS 3 Zrotation Xrotation Yrotation
              End Site
              {
                OFFSET 0.0062947 7.19214 -0.829005
              }
            }
          }
        }
      }
    }
  }
  JOINT LeftUpLeg
  {
    OFFSET 6.06837 -1.11278 -0.933477
    CHANNELS 3 Zrotation Xrotation Yrotation
    JOINT LeftUpLegRoll
    {
      OFFSET 0 17.1797 0
      CHANNELS 3 Zrotation Xrotation Yrotation
      JOINT LeftLeg
      {
        OFFSET 0 21.2742 0
        CHANNELS 3 Zrotation Xrotation Yrotation
        JOINT LeftLegRoll
        {
          OFFSET 0 21.5412 0
          CHANNELS 3 Zrotation Xrotation Yrotation
          JOINT LeftFoot
          {
            OFFSET 0 17.5679 0
            CHANNELS 3 Zrotation Xrotation Yrotation
            JOINT LeftToeBase
            {
              OFFSET 0 14.8508 0
              CHANNELS 3 Zrotation Xrotation Yrotation
              End Site
              {
                OFFSET -0.0282102 7.19214 -0.829004
              }
            }
          }
        }
      }
    }
  }
}
MOTION
Frames: 4
Frame Time: 0.00208333
53.8194 91.4897 4.97756 0.341461 -2.41715 -7.1694 0.345315 -1.66962 -0.224345 0.685712 0.662023 -0.483886 0.691882 2.30701 -0.495567 -1.34362 22.8044 1.33032 -1.89517 -7.02781 0.523642 70.2828 3.87824 0.5703 102.843 -2.64449 5.83389 -2.00282e-007 2.86291e-007 -4.71742e-006 15.5073 34.6283 -6.38367 2.21778e-006 -4.56892e-006 -2.99999 8.02884 -4.95124 0.697594 -73.9053 6.44747 -1.1713 -100.719 9.4205 -15.1937 5.6382e-006 -5.86812e-008 3.48269e-006 -16.9255 14.2398 2.78415 4.19099e-007 -5.38619e-006 3 -8.02905 -4.9514 -0.697696 173.852 1.95524 2.5989 180 7.01547e-015 178.925 177.016 5.17317 179.984 1.51005e-007 6.48036e-006 0.050715 -18.3715 67.5928 19.1974 8.1365 25.2327 -3.48774 -175.331 -3.99608 -0.144565 4.54188e-006 -4.6773e-006 -1.16963 -1.63921 -4.57656 0.0547542 -4.46245e-006 -6.55385e-007 -0.0355548 18.5697 67.8311 -19.3886 -8.13649 25.2327 3.48774 
53.8965 91.5271 4.99708 0.352777 -2.43292 -7.20866 0.344866 -1.6644 -0.222856 0.684773 0.67238 -0.481476 0.690914 2.31737 -0.493142 -1.2686 22.8414 1.31045 -1.99336 -7.0372 0.516963 70.2912 3.8356 0.548356 102.872 -2.81029 5.90501 -2.00282e-007 2.86291e-007 -4.71742e-006 15.4951 34.7035 -6.39677 2.21778e-006 -4.56892e-006 -2.99999 8.02884 -4.95124 0.697594 -73.9019 6.48308 -1.18777 -100.773 9.30139 -15.2485 5.6382e-006 -5.86812e-008 3.48269e-006 -16.8748 14.4743 2.82487 4.19099e-007 -5.38619e-006 3 -8.02905 -4.9514 -0.697696 173.827 1.94712 2.61363 180 7.01547e-015 178.925 177.013 5.17345 179.984 1.51005e-007 6.48036e-006 0.050715 -18.3709 67.5921 19.1969 8.1365 25.2327 -3.48774 -175.355 -4.0139 -0.13629 4.54188e-006 -4.6773e-006 -1.16963 -1.64334 -4.58408 0.054396 -4.46245e-006 -6.55385e-007 -0.0355548 18.5676 67.8286 -19.3866 -8.13649 25.2327 3.48774 
53.8837 91.5176 5.00115 0.36463 -2.44938 -7.24764 0.344398 -1.65908 -0.221224 0.683792 0.682918 -0.478844 0.689903 2.32791 -0.490494 -1.1947 22.8795 1.29041 -2.09078 -7.04785 0.509731 70.299 3.79378 0.526868 102.903 -2.9784 5.97814 -2.00282e-007 2.86291e-007 -4.71742e-006 15.4828 34.7752 -6.40932 2.21778e-006 -4.56892e-006 -2.99999 8.02884 -4.95124 0.697594 -73.9011 6.51979 -1.20424 -100.825 9.18023 -15.3032 5.6382e-006 -5.86812e-008 3.48269e-006 -16.8249 14.7144 2.86702 4.19099e-007 -5.38619e-006 3 -8.02905 -4.9514 -0.697696 173.802 1.93811 2.62898 180 7.01547e-015 178.925 177.011 5.1736 179.985 1.51005e-007 6.48036e-006 0.050715 -18.3703 67.5913 19.1964 8.1365 25.2327 -3.48774 -175.381 -4.03234 -0.127484 4.54188e-006 -4.6773e-006 -1.16963 -1.64729 -4.59172 0.0540356 -4.46245e-006 -6.55385e-007 -0.0355548 18.5655 67.826 -19.3846 -8.13649 25.2327 3.48774 
53.909 91.5054 5.00854 0.37685 -2.46633 -7.28642 0.343917 -1.65367 -0.219491 0.682781 0.693583 -0.476056 0.688859 2.33857 -0.48769 -1.12157 22.9184 1.27025 -2.18766 -7.0594 0.502112 70.3065 3.75253 0.505698 102.935 -3.14812 6.0527 -2.00282e-007 2.86291e-007 -4.71742e-006 15.4705 34.8444 -6.42151 2.21778e-006 -4.56892e-006 -2.99999 8.02884 -4.95124 0.697594 -73.9022 6.55727 -1.22072 -100.876 9.05767 -15.358 5.6382e-006 -5.86812e-008 3.48269e-006 -16.7756 14.9585 2.91022 4.19099e-007 -5.38619e-006 3 -8.02905 -4.9514 -0.697696 173.776 1.9285 2.64476 180 7.01547e-015 178.925 177.009 5.17366 179.985 1.51005e-007 6.48036e-006 0.050715 -18.3697 67.5906 19.1959 8.1365 25.2327 -3.48774 -175.407 -4.0512 -0.118304 4.54188e-006 -4.6773e-006 -1.16963 -1.65111 -4.59943 0.0536735 -4.46245e-006 -6.55385e-007 -0.0355548 18.5634 67.8235 -19.3826 -8.13649 25.2327 3.48774 
